<svg xmlns="http://www.w3.org/2000/svg" xmlns:xlink="http://www.w3.org/1999/xlink" width="128" height="128.00006103515625" viewBox="0 0 128 128.00006103515625" fill="none">
<path d="M128 64C128 113.799 113.799 128 64 128C14.2009 128 0 113.799 0 64C0 14.2009 14.2009 0 64 0C113.799 0 128 14.2009 128 64Z"   fill="url(#linear_fill_109_2)" >
</path>
<g mask="url(#mask-109_4)">
<path d="M60.6631 42.549L71.8999 49.0373C79.3521 53.3404 81.9055 62.8706 77.6031 70.3235C76.5135 72.2106 75.0894 73.7834 73.4485 75.0106L73.4485 78.644C73.4485 85.4243 78.9443 90.9207 85.7238 90.9207C92.5032 90.9207 97.9992 85.4243 97.9992 78.644L97.9992 42.2767C97.9992 35.4965 92.5032 30 85.7238 30C83.7873 30 81.9556 30.4485 80.3267 31.2472C80.0086 31.3962 79.6947 31.56 79.385 31.7387L60.6631 42.549Z"   fill="#FFFFFF" >
</path>
</g>
<g mask="url(#mask-109_4)">
<path d="M48.6148 39.4039C42.7436 36.0138 35.2361 38.0256 31.8463 43.8975C28.4566 49.7694 30.4682 57.2778 36.3394 60.6678L57.9716 73.1586C63.843 76.5487 71.3504 74.5369 74.7403 68.6651C78.1299 62.7932 76.1184 55.2848 70.2472 51.8948L48.6148 39.4039Z"   fill="#FFFFFF" >
</path>
</g>
<g mask="url(#mask-109_4)">
<path d="M54.5507 49.9462C54.5507 43.1659 49.0549 37.6694 42.2754 37.6694C35.4959 37.6694 30 43.1659 30 49.9462L30 85.7222C30 92.5024 35.4959 97.9989 42.2754 97.9989C49.0549 97.9989 54.5507 92.5024 54.5507 85.7222L54.5507 49.9462Z"   fill="#FFFFFF" >
</path>
</g>
<defs>
<linearGradient id="linear_fill_109_2" x1="64" y1="128.00006103515625" x2="64" y2="0" gradientUnits="userSpaceOnUse">
<stop offset="0" stop-color="#09203F"  />
<stop offset="1" stop-color="#537895"  />
</linearGradient>
<mask id="mask-109_4" style="mask-type:alpha" maskUnits="userSpaceOnUse">
<rect x="30" y="30" width="67.999755859375" height="68"   fill="#FFFFFF" >
</rect>
<rect x="30" y="30" width="67.999755859375" height="68"   fill="#FFFFFF" >
</rect>
</mask>
</defs>
</svg>
